<svg width="1143" height="1143" viewBox="0 0 1143 1143" fill="none" xmlns="http://www.w3.org/2000/svg">
<g clip-path="url(#paint0_angular_186_794_clip_path)" data-figma-skip-parse="true"><g transform="matrix(0.500186 0.751646 -0.751645 0.500186 574.235 574.234)"><foreignObject x="-881.848" y="-881.848" width="1763.7" height="1763.7"><div xmlns="http://www.w3.org/1999/xhtml" style="background:conic-gradient(from 90deg,rgba(255, 147, 175, 1) 0deg,rgba(255, 122, 246, 1) 59.4666deg,rgba(134, 150, 255, 1) 123.84deg,rgba(131, 255, 168, 1) 195.397deg,rgba(255, 229, 126, 1) 270.329deg,rgba(255, 155, 155, 1) 342.466deg,rgba(255, 147, 175, 1) 360deg);height:100%;width:100%;opacity:1"></div></foreignObject></g></g><path d="M571.5 0C814.551 0 936.076 0.000490537 1019.98 63.9551C1042.22 80.9116 1062.09 100.779 1079.04 123.023C1143 206.924 1143 328.449 1143 571.5C1143 814.551 1143 936.076 1079.04 1019.98C1062.09 1042.22 1042.22 1062.09 1019.98 1079.04C936.076 1143 814.551 1143 571.5 1143C328.449 1143 206.924 1143 123.023 1079.04C100.779 1062.09 80.9116 1042.22 63.9551 1019.98C0.000490537 936.076 0 814.551 0 571.5C0 328.449 0.000490537 206.924 63.9551 123.023C80.9116 100.779 100.779 80.9116 123.023 63.9551C206.924 0.000490537 328.449 0 571.5 0ZM510.54 243.84C388.409 243.84 327.343 243.84 289.401 281.781C251.46 319.723 251.46 380.789 251.46 502.92V632.46C251.46 754.591 251.46 815.657 289.401 853.599C327.343 891.54 388.409 891.54 510.54 891.54H640.08C762.212 891.54 823.277 891.54 861.219 853.599C899.16 815.657 899.16 754.591 899.16 632.46V502.92C899.16 380.789 899.16 319.723 861.219 281.781C823.277 243.84 762.212 243.84 640.08 243.84H510.54Z" data-figma-gradient-fill="{&#34;type&#34;:&#34;GRADIENT_ANGULAR&#34;,&#34;stops&#34;:[{&#34;color&#34;:{&#34;r&#34;:1.0,&#34;g&#34;:0.48076921701431274,&#34;b&#34;:0.96538460254669189,&#34;a&#34;:1.0},&#34;position&#34;:0.16518510878086090},{&#34;color&#34;:{&#34;r&#34;:0.52564060688018799,&#34;g&#34;:0.58888852596282959,&#34;b&#34;:1.0,&#34;a&#34;:1.0},&#34;position&#34;:0.34399875998497009},{&#34;color&#34;:{&#34;r&#34;:0.51602524518966675,&#34;g&#34;:1.0,&#34;b&#34;:0.66121762990951538,&#34;a&#34;:1.0},&#34;position&#34;:0.54276823997497559},{&#34;color&#34;:{&#34;r&#34;:1.0,&#34;g&#34;:0.89935886859893799,&#34;b&#34;:0.49679449200630188,&#34;a&#34;:1.0},&#34;position&#34;:0.75091469287872314},{&#34;color&#34;:{&#34;r&#34;:1.0,&#34;g&#34;:0.60897415876388550,&#34;b&#34;:0.60897415876388550,&#34;a&#34;:1.0},&#34;position&#34;:0.95129394531250}],&#34;stopsVar&#34;:[{&#34;color&#34;:{&#34;r&#34;:1.0,&#34;g&#34;:0.48076921701431274,&#34;b&#34;:0.96538460254669189,&#34;a&#34;:1.0},&#34;position&#34;:0.16518510878086090},{&#34;color&#34;:{&#34;r&#34;:0.52564060688018799,&#34;g&#34;:0.58888852596282959,&#34;b&#34;:1.0,&#34;a&#34;:1.0},&#34;position&#34;:0.34399875998497009},{&#34;color&#34;:{&#34;r&#34;:0.51602524518966675,&#34;g&#34;:1.0,&#34;b&#34;:0.66121762990951538,&#34;a&#34;:1.0},&#34;position&#34;:0.54276823997497559},{&#34;color&#34;:{&#34;r&#34;:1.0,&#34;g&#34;:0.89935886859893799,&#34;b&#34;:0.49679449200630188,&#34;a&#34;:1.0},&#34;position&#34;:0.75091469287872314},{&#34;color&#34;:{&#34;r&#34;:1.0,&#34;g&#34;:0.60897415876388550,&#34;b&#34;:0.60897415876388550,&#34;a&#34;:1.0},&#34;position&#34;:0.95129394531250}],&#34;transform&#34;:{&#34;m00&#34;:1000.3711547851562,&#34;m01&#34;:-1503.2908935546875,&#34;m02&#34;:825.69439697265625,&#34;m10&#34;:1503.2911376953125,&#34;m11&#34;:1000.3712158203125,&#34;m12&#34;:-677.59674072265625},&#34;opacity&#34;:1.0,&#34;blendMode&#34;:&#34;NORMAL&#34;,&#34;visible&#34;:true}"/>
<defs>
<clipPath id="paint0_angular_186_794_clip_path"><path d="M571.5 0C814.551 0 936.076 0.000490537 1019.98 63.9551C1042.22 80.9116 1062.09 100.779 1079.04 123.023C1143 206.924 1143 328.449 1143 571.5C1143 814.551 1143 936.076 1079.04 1019.98C1062.09 1042.22 1042.22 1062.09 1019.98 1079.04C936.076 1143 814.551 1143 571.5 1143C328.449 1143 206.924 1143 123.023 1079.04C100.779 1062.09 80.9116 1042.22 63.9551 1019.98C0.000490537 936.076 0 814.551 0 571.5C0 328.449 0.000490537 206.924 63.9551 123.023C80.9116 100.779 100.779 80.9116 123.023 63.9551C206.924 0.000490537 328.449 0 571.5 0ZM510.54 243.84C388.409 243.84 327.343 243.84 289.401 281.781C251.46 319.723 251.46 380.789 251.46 502.92V632.46C251.46 754.591 251.46 815.657 289.401 853.599C327.343 891.54 388.409 891.54 510.54 891.54H640.08C762.212 891.54 823.277 891.54 861.219 853.599C899.16 815.657 899.16 754.591 899.16 632.46V502.92C899.16 380.789 899.16 319.723 861.219 281.781C823.277 243.84 762.212 243.84 640.08 243.84H510.54Z"/></clipPath></defs>
</svg>
