<svg xmlns="http://www.w3.org/2000/svg" viewBox="0 0 1920 1080" preserveAspectRatio="xMidYMid slice"><defs><pattern id="l1" width="8" height="8" patternUnits="userSpaceOnUse"><g fill="#1f1f1f"><rect x="0" y="0" width="2" height="2"/></g></pattern><pattern id="l2" width="8" height="8" patternUnits="userSpaceOnUse"><g fill="#1f1f1f"><rect x="0" y="0" width="2" height="2"/><rect x="4" y="4" width="2" height="2"/></g></pattern><pattern id="l3" width="8" height="8" patternUnits="userSpaceOnUse"><g fill="#1f1f1f"><rect x="0" y="0" width="2" height="2"/><rect x="4" y="0" width="2" height="2"/><rect x="4" y="4" width="2" height="2"/></g></pattern><pattern id="l4" width="8" height="8" patternUnits="userSpaceOnUse"><g fill="#1f1f1f"><rect x="0" y="0" width="2" height="2"/><rect x="4" y="0" width="2" height="2"/><rect x="0" y="4" width="2" height="2"/><rect x="4" y="4" width="2" height="2"/></g></pattern><pattern id="l5" width="8" height="8" patternUnits="userSpaceOnUse"><g fill="#1f1f1f"><rect x="0" y="0" width="2" height="2"/><rect x="4" y="0" width="2" height="2"/><rect x="2" y="2" width="2" height="2"/><rect x="0" y="4" width="2" height="2"/><rect x="4" y="4" width="2" height="2"/></g></pattern><pattern id="l6" width="8" height="8" patternUnits="userSpaceOnUse"><g fill="#1f1f1f"><rect x="0" y="0" width="2" height="2"/><rect x="4" y="0" width="2" height="2"/><rect x="2" y="2" width="2" height="2"/><rect x="0" y="4" width="2" height="2"/><rect x="4" y="4" width="2" height="2"/><rect x="6" y="6" width="2" height="2"/></g></pattern><pattern id="l7" width="8" height="8" patternUnits="userSpaceOnUse"><g fill="#1f1f1f"><rect x="0" y="0" width="2" height="2"/><rect x="4" y="0" width="2" height="2"/><rect x="2" y="2" width="2" height="2"/><rect x="6" y="2" width="2" height="2"/><rect x="0" y="4" width="2" height="2"/><rect x="4" y="4" width="2" height="2"/><rect x="6" y="6" width="2" height="2"/></g></pattern><pattern id="l8" width="8" height="8" patternUnits="userSpaceOnUse"><g fill="#1f1f1f"><rect x="0" y="0" width="2" height="2"/><rect x="4" y="0" width="2" height="2"/><rect x="2" y="2" width="2" height="2"/><rect x="6" y="2" width="2" height="2"/><rect x="0" y="4" width="2" height="2"/><rect x="4" y="4" width="2" height="2"/><rect x="2" y="6" width="2" height="2"/><rect x="6" y="6" width="2" height="2"/></g></pattern><pattern id="l9" width="8" height="8" patternUnits="userSpaceOnUse"><g fill="#1f1f1f"><rect x="0" y="0" width="2" height="2"/><rect x="2" y="0" width="2" height="2"/><rect x="4" y="0" width="2" height="2"/><rect x="2" y="2" width="2" height="2"/><rect x="6" y="2" width="2" height="2"/><rect x="0" y="4" width="2" height="2"/><rect x="4" y="4" width="2" height="2"/><rect x="2" y="6" width="2" height="2"/><rect x="6" y="6" width="2" height="2"/></g></pattern><pattern id="l10" width="8" height="8" patternUnits="userSpaceOnUse"><g fill="#1f1f1f"><rect x="0" y="0" width="2" height="2"/><rect x="2" y="0" width="2" height="2"/><rect x="4" y="0" width="2" height="2"/><rect x="2" y="2" width="2" height="2"/><rect x="6" y="2" width="2" height="2"/><rect x="0" y="4" width="2" height="2"/><rect x="4" y="4" width="2" height="2"/><rect x="6" y="4" width="2" height="2"/><rect x="2" y="6" width="2" height="2"/><rect x="6" y="6" width="2" height="2"/></g></pattern><pattern id="l11" width="8" height="8" patternUnits="userSpaceOnUse"><g fill="#1f1f1f"><rect x="0" y="0" width="2" height="2"/><rect x="2" y="0" width="2" height="2"/><rect x="4" y="0" width="2" height="2"/><rect x="6" y="0" width="2" height="2"/><rect x="2" y="2" width="2" height="2"/><rect x="6" y="2" width="2" height="2"/><rect x="0" y="4" width="2" height="2"/><rect x="4" y="4" width="2" height="2"/><rect x="6" y="4" width="2" height="2"/><rect x="2" y="6" width="2" height="2"/><rect x="6" y="6" width="2" height="2"/></g></pattern><pattern id="l12" width="8" height="8" patternUnits="userSpaceOnUse"><g fill="#1f1f1f"><rect x="0" y="0" width="2" height="2"/><rect x="2" y="0" width="2" height="2"/><rect x="4" y="0" width="2" height="2"/><rect x="6" y="0" width="2" height="2"/><rect x="2" y="2" width="2" height="2"/><rect x="6" y="2" width="2" height="2"/><rect x="0" y="4" width="2" height="2"/><rect x="2" y="4" width="2" height="2"/><rect x="4" y="4" width="2" height="2"/><rect x="6" y="4" width="2" height="2"/><rect x="2" y="6" width="2" height="2"/><rect x="6" y="6" width="2" height="2"/></g></pattern><pattern id="l13" width="8" height="8" patternUnits="userSpaceOnUse"><g fill="#1f1f1f"><rect x="0" y="0" width="2" height="2"/><rect x="2" y="0" width="2" height="2"/><rect x="4" y="0" width="2" height="2"/><rect x="6" y="0" width="2" height="2"/><rect x="0" y="2" width="2" height="2"/><rect x="2" y="2" width="2" height="2"/><rect x="6" y="2" width="2" height="2"/><rect x="0" y="4" width="2" height="2"/><rect x="2" y="4" width="2" height="2"/><rect x="4" y="4" width="2" height="2"/><rect x="6" y="4" width="2" height="2"/><rect x="2" y="6" width="2" height="2"/><rect x="6" y="6" width="2" height="2"/></g></pattern><pattern id="l14" width="8" height="8" patternUnits="userSpaceOnUse"><g fill="#1f1f1f"><rect x="0" y="0" width="2" height="2"/><rect x="2" y="0" width="2" height="2"/><rect x="4" y="0" width="2" height="2"/><rect x="6" y="0" width="2" height="2"/><rect x="0" y="2" width="2" height="2"/><rect x="2" y="2" width="2" height="2"/><rect x="6" y="2" width="2" height="2"/><rect x="0" y="4" width="2" height="2"/><rect x="2" y="4" width="2" height="2"/><rect x="4" y="4" width="2" height="2"/><rect x="6" y="4" width="2" height="2"/><rect x="2" y="6" width="2" height="2"/><rect x="4" y="6" width="2" height="2"/><rect x="6" y="6" width="2" height="2"/></g></pattern><pattern id="l15" width="8" height="8" patternUnits="userSpaceOnUse"><g fill="#1f1f1f"><rect x="0" y="0" width="2" height="2"/><rect x="2" y="0" width="2" height="2"/><rect x="4" y="0" width="2" height="2"/><rect x="6" y="0" width="2" height="2"/><rect x="0" y="2" width="2" height="2"/><rect x="2" y="2" width="2" height="2"/><rect x="4" y="2" width="2" height="2"/><rect x="6" y="2" width="2" height="2"/><rect x="0" y="4" width="2" height="2"/><rect x="2" y="4" width="2" height="2"/><rect x="4" y="4" width="2" height="2"/><rect x="6" y="4" width="2" height="2"/><rect x="2" y="6" width="2" height="2"/><rect x="4" y="6" width="2" height="2"/><rect x="6" y="6" width="2" height="2"/></g></pattern><pattern id="l16" width="8" height="8" patternUnits="userSpaceOnUse"><g fill="#1f1f1f"><rect x="0" y="0" width="2" height="2"/><rect x="2" y="0" width="2" height="2"/><rect x="4" y="0" width="2" height="2"/><rect x="6" y="0" width="2" height="2"/><rect x="0" y="2" width="2" height="2"/><rect x="2" y="2" width="2" height="2"/><rect x="4" y="2" width="2" height="2"/><rect x="6" y="2" width="2" height="2"/><rect x="0" y="4" width="2" height="2"/><rect x="2" y="4" width="2" height="2"/><rect x="4" y="4" width="2" height="2"/><rect x="6" y="4" width="2" height="2"/><rect x="0" y="6" width="2" height="2"/><rect x="2" y="6" width="2" height="2"/><rect x="4" y="6" width="2" height="2"/><rect x="6" y="6" width="2" height="2"/></g></pattern><clipPath id="b0k1"><ellipse cx="1660" cy="140" rx="760.0" ry="620.0" transform="rotate(-24 1660 140)"/></clipPath><clipPath id="b0k2"><ellipse cx="1660" cy="140" rx="712.5" ry="581.3" transform="rotate(-24 1660 140)"/></clipPath><clipPath id="b0k3"><ellipse cx="1660" cy="140" rx="665.0" ry="542.5" transform="rotate(-24 1660 140)"/></clipPath><clipPath id="b0k4"><ellipse cx="1660" cy="140" rx="617.5" ry="503.8" transform="rotate(-24 1660 140)"/></clipPath><clipPath id="b0k5"><ellipse cx="1660" cy="140" rx="570.0" ry="465.0" transform="rotate(-24 1660 140)"/></clipPath><clipPath id="b0k6"><ellipse cx="1660" cy="140" rx="522.5" ry="426.3" transform="rotate(-24 1660 140)"/></clipPath><clipPath id="b0k7"><ellipse cx="1660" cy="140" rx="475.0" ry="387.5" transform="rotate(-24 1660 140)"/></clipPath><clipPath id="b0k8"><ellipse cx="1660" cy="140" rx="427.5" ry="348.8" transform="rotate(-24 1660 140)"/></clipPath><clipPath id="b0k9"><ellipse cx="1660" cy="140" rx="380.0" ry="310.0" transform="rotate(-24 1660 140)"/></clipPath><clipPath id="b0k10"><ellipse cx="1660" cy="140" rx="332.5" ry="271.3" transform="rotate(-24 1660 140)"/></clipPath><clipPath id="b0k11"><ellipse cx="1660" cy="140" rx="285.0" ry="232.5" transform="rotate(-24 1660 140)"/></clipPath><clipPath id="b0k12"><ellipse cx="1660" cy="140" rx="237.5" ry="193.8" transform="rotate(-24 1660 140)"/></clipPath><clipPath id="b0k13"><ellipse cx="1660" cy="140" rx="190.0" ry="155.0" transform="rotate(-24 1660 140)"/></clipPath><clipPath id="b0k14"><ellipse cx="1660" cy="140" rx="142.5" ry="116.3" transform="rotate(-24 1660 140)"/></clipPath><clipPath id="b0k15"><ellipse cx="1660" cy="140" rx="95.0" ry="77.5" transform="rotate(-24 1660 140)"/></clipPath><clipPath id="b0k16"><ellipse cx="1660" cy="140" rx="47.5" ry="38.8" transform="rotate(-24 1660 140)"/></clipPath><clipPath id="b1k1"><ellipse cx="240" cy="960" rx="640.0" ry="520.0" transform="rotate(18 240 960)"/></clipPath><clipPath id="b1k2"><ellipse cx="240" cy="960" rx="586.7" ry="476.7" transform="rotate(18 240 960)"/></clipPath><clipPath id="b1k3"><ellipse cx="240" cy="960" rx="533.3" ry="433.3" transform="rotate(18 240 960)"/></clipPath><clipPath id="b1k4"><ellipse cx="240" cy="960" rx="480.0" ry="390.0" transform="rotate(18 240 960)"/></clipPath><clipPath id="b1k5"><ellipse cx="240" cy="960" rx="426.7" ry="346.7" transform="rotate(18 240 960)"/></clipPath><clipPath id="b1k6"><ellipse cx="240" cy="960" rx="373.3" ry="303.3" transform="rotate(18 240 960)"/></clipPath><clipPath id="b1k7"><ellipse cx="240" cy="960" rx="320.0" ry="260.0" transform="rotate(18 240 960)"/></clipPath><clipPath id="b1k8"><ellipse cx="240" cy="960" rx="266.7" ry="216.7" transform="rotate(18 240 960)"/></clipPath><clipPath id="b1k9"><ellipse cx="240" cy="960" rx="213.3" ry="173.3" transform="rotate(18 240 960)"/></clipPath><clipPath id="b1k10"><ellipse cx="240" cy="960" rx="160.0" ry="130.0" transform="rotate(18 240 960)"/></clipPath><clipPath id="b1k11"><ellipse cx="240" cy="960" rx="106.7" ry="86.7" transform="rotate(18 240 960)"/></clipPath><clipPath id="b1k12"><ellipse cx="240" cy="960" rx="53.3" ry="43.3" transform="rotate(18 240 960)"/></clipPath><clipPath id="b2k1"><ellipse cx="620" cy="380" rx="470.0" ry="360.0" transform="rotate(-12 620 380)"/></clipPath><clipPath id="b2k2"><ellipse cx="620" cy="380" rx="402.9" ry="308.6" transform="rotate(-12 620 380)"/></clipPath><clipPath id="b2k3"><ellipse cx="620" cy="380" rx="335.7" ry="257.1" transform="rotate(-12 620 380)"/></clipPath><clipPath id="b2k4"><ellipse cx="620" cy="380" rx="268.6" ry="205.7" transform="rotate(-12 620 380)"/></clipPath><clipPath id="b2k5"><ellipse cx="620" cy="380" rx="201.4" ry="154.3" transform="rotate(-12 620 380)"/></clipPath><clipPath id="b2k6"><ellipse cx="620" cy="380" rx="134.3" ry="102.9" transform="rotate(-12 620 380)"/></clipPath><clipPath id="b2k7"><ellipse cx="620" cy="380" rx="67.1" ry="51.4" transform="rotate(-12 620 380)"/></clipPath><clipPath id="b3k1"><ellipse cx="1420" cy="920" rx="420.0" ry="330.0" transform="rotate(30 1420 920)"/></clipPath><clipPath id="b3k2"><ellipse cx="1420" cy="920" rx="373.3" ry="293.3" transform="rotate(30 1420 920)"/></clipPath><clipPath id="b3k3"><ellipse cx="1420" cy="920" rx="326.7" ry="256.7" transform="rotate(30 1420 920)"/></clipPath><clipPath id="b3k4"><ellipse cx="1420" cy="920" rx="280.0" ry="220.0" transform="rotate(30 1420 920)"/></clipPath><clipPath id="b3k5"><ellipse cx="1420" cy="920" rx="233.3" ry="183.3" transform="rotate(30 1420 920)"/></clipPath><clipPath id="b3k6"><ellipse cx="1420" cy="920" rx="186.7" ry="146.7" transform="rotate(30 1420 920)"/></clipPath><clipPath id="b3k7"><ellipse cx="1420" cy="920" rx="140.0" ry="110.0" transform="rotate(30 1420 920)"/></clipPath><clipPath id="b3k8"><ellipse cx="1420" cy="920" rx="93.3" ry="73.3" transform="rotate(30 1420 920)"/></clipPath><clipPath id="b3k9"><ellipse cx="1420" cy="920" rx="46.7" ry="36.7" transform="rotate(30 1420 920)"/></clipPath><clipPath id="b4k1"><ellipse cx="980" cy="170" rx="280.0" ry="220.0" transform="rotate(8 980 170)"/></clipPath><clipPath id="b4k2"><ellipse cx="980" cy="170" rx="233.3" ry="183.3" transform="rotate(8 980 170)"/></clipPath><clipPath id="b4k3"><ellipse cx="980" cy="170" rx="186.7" ry="146.7" transform="rotate(8 980 170)"/></clipPath><clipPath id="b4k4"><ellipse cx="980" cy="170" rx="140.0" ry="110.0" transform="rotate(8 980 170)"/></clipPath><clipPath id="b4k5"><ellipse cx="980" cy="170" rx="93.3" ry="73.3" transform="rotate(8 980 170)"/></clipPath><clipPath id="b4k6"><ellipse cx="980" cy="170" rx="46.7" ry="36.7" transform="rotate(8 980 170)"/></clipPath></defs><rect width="1920" height="1080" fill="#000000"/><rect width="1920" height="1080" fill="url(#l1)" clip-path="url(#b0k1)"/><rect width="1920" height="1080" fill="url(#l2)" clip-path="url(#b0k2)"/><rect width="1920" height="1080" fill="url(#l3)" clip-path="url(#b0k3)"/><rect width="1920" height="1080" fill="url(#l4)" clip-path="url(#b0k4)"/><rect width="1920" height="1080" fill="url(#l5)" clip-path="url(#b0k5)"/><rect width="1920" height="1080" fill="url(#l6)" clip-path="url(#b0k6)"/><rect width="1920" height="1080" fill="url(#l7)" clip-path="url(#b0k7)"/><rect width="1920" height="1080" fill="url(#l8)" clip-path="url(#b0k8)"/><rect width="1920" height="1080" fill="url(#l9)" clip-path="url(#b0k9)"/><rect width="1920" height="1080" fill="url(#l10)" clip-path="url(#b0k10)"/><rect width="1920" height="1080" fill="url(#l11)" clip-path="url(#b0k11)"/><rect width="1920" height="1080" fill="url(#l12)" clip-path="url(#b0k12)"/><rect width="1920" height="1080" fill="url(#l13)" clip-path="url(#b0k13)"/><rect width="1920" height="1080" fill="url(#l14)" clip-path="url(#b0k14)"/><rect width="1920" height="1080" fill="url(#l15)" clip-path="url(#b0k15)"/><rect width="1920" height="1080" fill="url(#l16)" clip-path="url(#b0k16)"/><rect width="1920" height="1080" fill="url(#l1)" clip-path="url(#b1k1)"/><rect width="1920" height="1080" fill="url(#l2)" clip-path="url(#b1k2)"/><rect width="1920" height="1080" fill="url(#l3)" clip-path="url(#b1k3)"/><rect width="1920" height="1080" fill="url(#l4)" clip-path="url(#b1k4)"/><rect width="1920" height="1080" fill="url(#l5)" clip-path="url(#b1k5)"/><rect width="1920" height="1080" fill="url(#l6)" clip-path="url(#b1k6)"/><rect width="1920" height="1080" fill="url(#l7)" clip-path="url(#b1k7)"/><rect width="1920" height="1080" fill="url(#l8)" clip-path="url(#b1k8)"/><rect width="1920" height="1080" fill="url(#l9)" clip-path="url(#b1k9)"/><rect width="1920" height="1080" fill="url(#l10)" clip-path="url(#b1k10)"/><rect width="1920" height="1080" fill="url(#l11)" clip-path="url(#b1k11)"/><rect width="1920" height="1080" fill="url(#l12)" clip-path="url(#b1k12)"/><rect width="1920" height="1080" fill="url(#l1)" clip-path="url(#b2k1)"/><rect width="1920" height="1080" fill="url(#l2)" clip-path="url(#b2k2)"/><rect width="1920" height="1080" fill="url(#l3)" clip-path="url(#b2k3)"/><rect width="1920" height="1080" fill="url(#l4)" clip-path="url(#b2k4)"/><rect width="1920" height="1080" fill="url(#l5)" clip-path="url(#b2k5)"/><rect width="1920" height="1080" fill="url(#l6)" clip-path="url(#b2k6)"/><rect width="1920" height="1080" fill="url(#l7)" clip-path="url(#b2k7)"/><rect width="1920" height="1080" fill="url(#l1)" clip-path="url(#b3k1)"/><rect width="1920" height="1080" fill="url(#l2)" clip-path="url(#b3k2)"/><rect width="1920" height="1080" fill="url(#l3)" clip-path="url(#b3k3)"/><rect width="1920" height="1080" fill="url(#l4)" clip-path="url(#b3k4)"/><rect width="1920" height="1080" fill="url(#l5)" clip-path="url(#b3k5)"/><rect width="1920" height="1080" fill="url(#l6)" clip-path="url(#b3k6)"/><rect width="1920" height="1080" fill="url(#l7)" clip-path="url(#b3k7)"/><rect width="1920" height="1080" fill="url(#l8)" clip-path="url(#b3k8)"/><rect width="1920" height="1080" fill="url(#l9)" clip-path="url(#b3k9)"/><rect width="1920" height="1080" fill="url(#l1)" clip-path="url(#b4k1)"/><rect width="1920" height="1080" fill="url(#l2)" clip-path="url(#b4k2)"/><rect width="1920" height="1080" fill="url(#l3)" clip-path="url(#b4k3)"/><rect width="1920" height="1080" fill="url(#l4)" clip-path="url(#b4k4)"/><rect width="1920" height="1080" fill="url(#l5)" clip-path="url(#b4k5)"/><rect width="1920" height="1080" fill="url(#l6)" clip-path="url(#b4k6)"/></svg>