<svg xmlns="http://www.w3.org/2000/svg" viewBox="0 0 1920 1080" preserveAspectRatio="xMidYMid slice"><defs><pattern id="l1" width="8" height="8" patternUnits="userSpaceOnUse"><g fill="#1f1f1f"><rect x="0" y="0" width="2" height="2"/></g></pattern><pattern id="l2" width="8" height="8" patternUnits="userSpaceOnUse"><g fill="#1f1f1f"><rect x="0" y="0" width="2" height="2"/><rect x="4" y="4" width="2" height="2"/></g></pattern><pattern id="l3" width="8" height="8" patternUnits="userSpaceOnUse"><g fill="#1f1f1f"><rect x="0" y="0" width="2" height="2"/><rect x="4" y="0" width="2" height="2"/><rect x="4" y="4" width="2" height="2"/></g></pattern><pattern id="l4" width="8" height="8" patternUnits="userSpaceOnUse"><g fill="#1f1f1f"><rect x="0" y="0" width="2" height="2"/><rect x="4" y="0" width="2" height="2"/><rect x="0" y="4" width="2" height="2"/><rect x="4" y="4" width="2" height="2"/></g></pattern><pattern id="l5" width="8" height="8" patternUnits="userSpaceOnUse"><g fill="#1f1f1f"><rect x="0" y="0" width="2" height="2"/><rect x="4" y="0" width="2" height="2"/><rect x="2" y="2" width="2" height="2"/><rect x="0" y="4" width="2" height="2"/><rect x="4" y="4" width="2" height="2"/></g></pattern><pattern id="l6" width="8" height="8" patternUnits="userSpaceOnUse"><g fill="#1f1f1f"><rect x="0" y="0" width="2" height="2"/><rect x="4" y="0" width="2" height="2"/><rect x="2" y="2" width="2" height="2"/><rect x="0" y="4" width="2" height="2"/><rect x="4" y="4" width="2" height="2"/><rect x="6" y="6" width="2" height="2"/></g></pattern><pattern id="l7" width="8" height="8" patternUnits="userSpaceOnUse"><g fill="#1f1f1f"><rect x="0" y="0" width="2" height="2"/><rect x="4" y="0" width="2" height="2"/><rect x="2" y="2" width="2" height="2"/><rect x="6" y="2" width="2" height="2"/><rect x="0" y="4" width="2" height="2"/><rect x="4" y="4" width="2" height="2"/><rect x="6" y="6" width="2" height="2"/></g></pattern><pattern id="l8" width="8" height="8" patternUnits="userSpaceOnUse"><g fill="#1f1f1f"><rect x="0" y="0" width="2" height="2"/><rect x="4" y="0" width="2" height="2"/><rect x="2" y="2" width="2" height="2"/><rect x="6" y="2" width="2" height="2"/><rect x="0" y="4" width="2" height="2"/><rect x="4" y="4" width="2" height="2"/><rect x="2" y="6" width="2" height="2"/><rect x="6" y="6" width="2" height="2"/></g></pattern><pattern id="l9" width="8" height="8" patternUnits="userSpaceOnUse"><g fill="#1f1f1f"><rect x="0" y="0" width="2" height="2"/><rect x="2" y="0" width="2" height="2"/><rect x="4" y="0" width="2" height="2"/><rect x="2" y="2" width="2" height="2"/><rect x="6" y="2" width="2" height="2"/><rect x="0" y="4" width="2" height="2"/><rect x="4" y="4" width="2" height="2"/><rect x="2" y="6" width="2" height="2"/><rect x="6" y="6" width="2" height="2"/></g></pattern><pattern id="l10" width="8" height="8" patternUnits="userSpaceOnUse"><g fill="#1f1f1f"><rect x="0" y="0" width="2" height="2"/><rect x="2" y="0" width="2" height="2"/><rect x="4" y="0" width="2" height="2"/><rect x="2" y="2" width="2" height="2"/><rect x="6" y="2" width="2" height="2"/><rect x="0" y="4" width="2" height="2"/><rect x="4" y="4" width="2" height="2"/><rect x="6" y="4" width="2" height="2"/><rect x="2" y="6" width="2" height="2"/><rect x="6" y="6" width="2" height="2"/></g></pattern><pattern id="l11" width="8" height="8" patternUnits="userSpaceOnUse"><g fill="#1f1f1f"><rect x="0" y="0" width="2" height="2"/><rect x="2" y="0" width="2" height="2"/><rect x="4" y="0" width="2" height="2"/><rect x="6" y="0" width="2" height="2"/><rect x="2" y="2" width="2" height="2"/><rect x="6" y="2" width="2" height="2"/><rect x="0" y="4" width="2" height="2"/><rect x="4" y="4" width="2" height="2"/><rect x="6" y="4" width="2" height="2"/><rect x="2" y="6" width="2" height="2"/><rect x="6" y="6" width="2" height="2"/></g></pattern><pattern id="l12" width="8" height="8" patternUnits="userSpaceOnUse"><g fill="#1f1f1f"><rect x="0" y="0" width="2" height="2"/><rect x="2" y="0" width="2" height="2"/><rect x="4" y="0" width="2" height="2"/><rect x="6" y="0" width="2" height="2"/><rect x="2" y="2" width="2" height="2"/><rect x="6" y="2" width="2" height="2"/><rect x="0" y="4" width="2" height="2"/><rect x="2" y="4" width="2" height="2"/><rect x="4" y="4" width="2" height="2"/><rect x="6" y="4" width="2" height="2"/><rect x="2" y="6" width="2" height="2"/><rect x="6" y="6" width="2" height="2"/></g></pattern><pattern id="l13" width="8" height="8" patternUnits="userSpaceOnUse"><g fill="#1f1f1f"><rect x="0" y="0" width="2" height="2"/><rect x="2" y="0" width="2" height="2"/><rect x="4" y="0" width="2" height="2"/><rect x="6" y="0" width="2" height="2"/><rect x="0" y="2" width="2" height="2"/><rect x="2" y="2" width="2" height="2"/><rect x="6" y="2" width="2" height="2"/><rect x="0" y="4" width="2" height="2"/><rect x="2" y="4" width="2" height="2"/><rect x="4" y="4" width="2" height="2"/><rect x="6" y="4" width="2" height="2"/><rect x="2" y="6" width="2" height="2"/><rect x="6" y="6" width="2" height="2"/></g></pattern><pattern id="l14" width="8" height="8" patternUnits="userSpaceOnUse"><g fill="#1f1f1f"><rect x="0" y="0" width="2" height="2"/><rect x="2" y="0" width="2" height="2"/><rect x="4" y="0" width="2" height="2"/><rect x="6" y="0" width="2" height="2"/><rect x="0" y="2" width="2" height="2"/><rect x="2" y="2" width="2" height="2"/><rect x="6" y="2" width="2" height="2"/><rect x="0" y="4" width="2" height="2"/><rect x="2" y="4" width="2" height="2"/><rect x="4" y="4" width="2" height="2"/><rect x="6" y="4" width="2" height="2"/><rect x="2" y="6" width="2" height="2"/><rect x="4" y="6" width="2" height="2"/><rect x="6" y="6" width="2" height="2"/></g></pattern><pattern id="l15" width="8" height="8" patternUnits="userSpaceOnUse"><g fill="#1f1f1f"><rect x="0" y="0" width="2" height="2"/><rect x="2" y="0" width="2" height="2"/><rect x="4" y="0" width="2" height="2"/><rect x="6" y="0" width="2" height="2"/><rect x="0" y="2" width="2" height="2"/><rect x="2" y="2" width="2" height="2"/><rect x="4" y="2" width="2" height="2"/><rect x="6" y="2" width="2" height="2"/><rect x="0" y="4" width="2" height="2"/><rect x="2" y="4" width="2" height="2"/><rect x="4" y="4" width="2" height="2"/><rect x="6" y="4" width="2" height="2"/><rect x="2" y="6" width="2" height="2"/><rect x="4" y="6" width="2" height="2"/><rect x="6" y="6" width="2" height="2"/></g></pattern><pattern id="l16" width="8" height="8" patternUnits="userSpaceOnUse"><g fill="#1f1f1f"><rect x="0" y="0" width="2" height="2"/><rect x="2" y="0" width="2" height="2"/><rect x="4" y="0" width="2" height="2"/><rect x="6" y="0" width="2" height="2"/><rect x="0" y="2" width="2" height="2"/><rect x="2" y="2" width="2" height="2"/><rect x="4" y="2" width="2" height="2"/><rect x="6" y="2" width="2" height="2"/><rect x="0" y="4" width="2" height="2"/><rect x="2" y="4" width="2" height="2"/><rect x="4" y="4" width="2" height="2"/><rect x="6" y="4" width="2" height="2"/><rect x="0" y="6" width="2" height="2"/><rect x="2" y="6" width="2" height="2"/><rect x="4" y="6" width="2" height="2"/><rect x="6" y="6" width="2" height="2"/></g></pattern><clipPath id="c1"><rect x="-19.0" y="-569.5" width="130.5" height="2219" transform="rotate(38 960 540)"/></clipPath><clipPath id="c2"><rect x="111.6" y="-569.5" width="130.5" height="2219" transform="rotate(38 960 540)"/></clipPath><clipPath id="c3"><rect x="242.1" y="-569.5" width="130.5" height="2219" transform="rotate(38 960 540)"/></clipPath><clipPath id="c4"><rect x="372.6" y="-569.5" width="130.5" height="2219" transform="rotate(38 960 540)"/></clipPath><clipPath id="c5"><rect x="503.1" y="-569.5" width="130.5" height="2219" transform="rotate(38 960 540)"/></clipPath><clipPath id="c6"><rect x="633.7" y="-569.5" width="130.5" height="2219" transform="rotate(38 960 540)"/></clipPath><clipPath id="c7"><rect x="764.2" y="-569.5" width="130.5" height="2219" transform="rotate(38 960 540)"/></clipPath><clipPath id="c8"><rect x="894.7" y="-569.5" width="130.5" height="2219" transform="rotate(38 960 540)"/></clipPath><clipPath id="c9"><rect x="1025.3" y="-569.5" width="130.5" height="2219" transform="rotate(38 960 540)"/></clipPath><clipPath id="c10"><rect x="1155.8" y="-569.5" width="130.5" height="2219" transform="rotate(38 960 540)"/></clipPath><clipPath id="c11"><rect x="1286.3" y="-569.5" width="130.5" height="2219" transform="rotate(38 960 540)"/></clipPath><clipPath id="c12"><rect x="1416.9" y="-569.5" width="130.5" height="2219" transform="rotate(38 960 540)"/></clipPath><clipPath id="c13"><rect x="1547.4" y="-569.5" width="130.5" height="2219" transform="rotate(38 960 540)"/></clipPath><clipPath id="c14"><rect x="1677.9" y="-569.5" width="130.5" height="2219" transform="rotate(38 960 540)"/></clipPath><clipPath id="c15"><rect x="1808.4" y="-569.5" width="130.5" height="2219" transform="rotate(38 960 540)"/></clipPath><clipPath id="c16"><rect x="1939.0" y="-569.5" width="130.5" height="2219" transform="rotate(38 960 540)"/></clipPath></defs><rect width="1920" height="1080" fill="#000000"/><rect width="1920" height="1080" fill="url(#l1)" clip-path="url(#c1)"/><rect width="1920" height="1080" fill="url(#l2)" clip-path="url(#c2)"/><rect width="1920" height="1080" fill="url(#l3)" clip-path="url(#c3)"/><rect width="1920" height="1080" fill="url(#l4)" clip-path="url(#c4)"/><rect width="1920" height="1080" fill="url(#l5)" clip-path="url(#c5)"/><rect width="1920" height="1080" fill="url(#l6)" clip-path="url(#c6)"/><rect width="1920" height="1080" fill="url(#l7)" clip-path="url(#c7)"/><rect width="1920" height="1080" fill="url(#l8)" clip-path="url(#c8)"/><rect width="1920" height="1080" fill="url(#l9)" clip-path="url(#c9)"/><rect width="1920" height="1080" fill="url(#l10)" clip-path="url(#c10)"/><rect width="1920" height="1080" fill="url(#l11)" clip-path="url(#c11)"/><rect width="1920" height="1080" fill="url(#l12)" clip-path="url(#c12)"/><rect width="1920" height="1080" fill="url(#l13)" clip-path="url(#c13)"/><rect width="1920" height="1080" fill="url(#l14)" clip-path="url(#c14)"/><rect width="1920" height="1080" fill="url(#l15)" clip-path="url(#c15)"/><rect width="1920" height="1080" fill="url(#l16)" clip-path="url(#c16)"/></svg>